<svg xmlns="http://www.w3.org/2000/svg" viewBox="92 444 835 144">
  <!-- Left O -->
  <path fill="#F3F3F4" d="M167.598282,578.140869 C127.391251,572.968811 97.514030,525.298218 122.960861,483.043274 C140.781525,453.451721 182.020111,444.726318 211.094406,464.474915 C235.216339,480.859650 244.658020,509.567230 234.815018,536.597778 C224.581543,564.700684 198.031799,581.240173 167.598282,578.140869 M146.957733,494.535858 C137.863586,507.996429 137.341171,522.963867 146.085236,535.141785 C154.918762,547.444397 166.874634,554.103333 182.246140,551.262695 C196.687393,548.593933 206.743713,539.823914 210.313339,525.357910 C213.906372,510.797211 210.241364,497.914459 198.337891,488.100983 C183.266068,475.675446 161.215561,478.280701 146.957733,494.535858 z"/>
  <path fill="#121C32" d="M147.181641,494.254181 C161.215561,478.280701 183.266068,475.675446 198.337891,488.100983 C210.241364,497.914459 213.906372,510.797211 210.313339,525.357910 C206.743713,539.823914 196.687393,548.593933 182.246140,551.262695 C166.874634,554.103333 154.918762,547.444397 146.085236,535.141785 C137.341171,522.963867 137.863586,507.996429 147.181641,494.254181 z"/>
  <!-- N -->
  <path fill="#F2F3F4" d="M278.400024,466.090332 C278.535431,462.688629 278.667633,459.769714 278.886108,454.947113 C283.247986,457.598907 286.668213,459.110199 289.402100,461.430237 C311.123779,479.863708 332.708527,498.458466 354.354523,516.981262 C357.093781,519.325317 359.944031,521.539551 363.856201,524.718689 C364.046173,520.981995 364.279022,518.618408 364.268585,516.255859 C364.187531,497.927368 364.156250,479.597595 363.871338,461.271881 C363.808044,457.200867 364.928925,455.556274 369.200317,455.852478 C374.176086,456.197571 379.211182,456.220062 384.186157,455.879822 C388.357452,455.594543 389.595001,456.997314 389.572723,461.164703 C389.418640,489.991455 389.500397,518.819458 389.497009,547.647034 C389.496033,555.978699 389.513428,564.310913 389.428406,572.641907 C389.377289,577.651550 387.114075,579.011963 382.911102,576.082520 C378.144043,572.759827 373.702942,568.936157 369.319092,565.102722 C350.258057,548.435120 331.279907,531.672668 312.236847,514.984436 C310.529205,513.487915 308.571838,512.276367 305.815094,510.264435 C305.520294,513.075928 305.170288,514.921875 305.157166,516.770142 C305.026733,535.099060 304.828705,553.429321 304.957581,571.757019 C304.986053,575.801880 303.751923,577.005188 299.835724,576.789429 C294.353058,576.487427 288.829498,576.467957 283.347351,576.766663 C279.263245,576.989197 278.326233,575.395142 278.339783,571.552246 C278.462982,536.559570 278.403168,501.566254 278.400024,466.090332 z"/>
  <!-- A mark -->
  <path fill="#0F9DED" d="M470.000641,454.975006 C470.000641,454.975006 470.240295,454.759369 470.693237,454.634155 C471.389252,453.958954 471.632385,453.408966 471.875488,452.858978 C472.042419,452.594269 472.246948,452.362793 473.065155,452.039978 C474.561157,451.535278 475.492004,451.179474 476.399323,450.771301 C488.145142,445.486389 502.319977,450.116150 505.084656,464.241577 C506.059143,469.220367 509.216003,473.960815 512.085632,478.346008 C522.631653,494.461884 533.454163,510.397247 544.243774,526.352417 C545.201843,527.769165 546.675232,528.837402 547.909302,530.067505 C547.909302,530.067505 547.944763,530.020874 547.944214,530.378601 C554.084534,540.968872 560.109863,551.273010 566.403992,561.410400 C571.134827,569.029846 567.983704,575.223694 558.889404,576.228394 C549.605530,577.254089 542.989075,573.289001 538.655640,565.557800 C535.457275,559.851746 531.049988,557.768799 524.723267,558.208679 C517.599915,558.703796 510.440582,558.913147 503.299164,558.870422 C489.167145,558.785889 475.031677,558.121826 460.907654,558.341431 C453.852203,558.451172 446.208221,557.610657 440.704010,564.105042 C434.313110,571.645630 421.369080,570.886841 413.831055,563.452820 C406.261017,555.987244 405.606323,544.173401 412.317627,535.851624 C413.006561,534.997437 413.338074,533.854919 413.835449,532.846191 C416.892151,531.489258 419.948822,530.132324 423.735962,528.858765 C424.971252,528.964966 425.476166,528.987732 426.232361,529.211060 C427.697815,529.002808 428.911987,528.593994 430.126160,528.185181 C430.523743,528.121216 430.921295,528.057251 431.944275,528.070190 C433.032196,528.161194 433.494781,528.175171 434.260010,528.392212 C437.412933,528.613037 440.263184,528.630859 443.573975,528.676880 C455.295929,528.920349 466.557434,529.135559 478.015747,529.675537 C488.537079,530.176636 498.861481,530.362976 509.186615,530.485352 C509.529175,530.489441 509.879395,529.845642 510.437134,529.480164 C510.648224,529.456482 511.073029,529.460022 511.327759,529.642822 C515.294861,529.294800 515.418579,527.020447 513.767029,524.532715 C506.909302,514.203003 499.954895,503.935974 492.886169,493.749878 C492.036224,492.525146 490.272614,491.934448 488.758392,490.818665 C488.060974,490.346405 487.537628,490.105377 486.882080,489.587280 C486.184082,489.120728 485.618347,488.931213 484.720276,488.557800 C476.091339,488.407227 470.664551,484.061951 467.051056,476.637939 C466.814148,475.181488 466.549286,474.079865 466.284424,472.978241 C466.469391,468.930176 466.654358,464.882141 467.204010,460.263763 C467.706543,459.111725 467.844360,458.530029 467.982208,457.948303 C467.982208,457.948303 468.158203,457.625061 468.532959,457.354370 C469.272034,456.380798 469.636353,455.677917 470.000641,454.975006 z"/>
  <!-- U -->
  <path fill="#F3F4F5" d="M592.725220,573.128235 C578.741577,565.160767 569.168030,553.562073 562.667908,539.549133 C560.578491,535.044861 559.830566,529.583801 559.750732,524.540100 C559.416138,503.396423 559.634460,482.244598 559.476807,461.097015 C559.450012,457.504883 560.409058,455.961121 564.232117,456.084991 C571.190918,456.310455 578.162292,456.149048 585.699097,456.149048 C585.802246,458.502808 585.966553,460.417755 585.957642,462.331909 C585.863892,482.481201 585.578003,502.631165 585.680298,522.779297 C585.762695,539.017151 598.380920,551.823669 613.805725,551.849060 C628.167297,551.872681 640.733826,540.724365 641.490173,526.318237 C642.135376,514.028625 641.738464,501.683533 641.775146,489.362946 C641.802917,480.037506 641.908264,470.709717 641.732788,461.387573 C641.661743,457.617859 642.772888,455.917694 646.820251,456.055695 C653.764038,456.292511 660.721741,456.121185 667.758240,456.121185 C668.024292,457.733917 668.324280,458.693542 668.319885,459.651825 C668.218506,481.631165 668.585449,503.627472 667.836914,525.585571 C666.740234,557.757507 635.665649,582.982178 604.851868,577.225525 C600.815552,576.471436 596.982727,574.628540 592.725220,573.128235 z"/>
  <!-- T -->
  <path fill="#F3F4F5" d="M685.886353,471.925354 C685.883789,467.942841 686.092651,464.426819 685.821228,460.948273 C685.514648,457.019836 686.933350,455.835754 690.910278,455.860962 C717.738770,456.031036 744.568848,455.956268 771.398376,455.960602 C774.873291,455.961151 778.348206,455.960663 782.445068,455.960663 C782.445068,464.214447 782.566345,472.126556 782.259338,480.021942 C782.228271,480.820496 779.626770,482.128723 778.194458,482.161316 C770.533936,482.335815 762.865906,482.153168 755.200439,482.146729 C748.042725,482.140717 748.006348,482.169830 748.015747,489.085846 C748.052979,516.415161 748.003357,543.745605 748.276489,571.072693 C748.322693,575.696106 747.064209,577.242249 742.439148,577.002686 C735.822021,576.660034 729.173828,576.915344 721.829712,576.915344 C721.829712,574.555176 721.831299,572.777893 721.829529,571.000549 C721.802246,543.504395 721.771729,516.008301 721.749023,488.512146 C721.743774,482.105621 721.755859,482.109955 715.125488,482.123932 C707.459961,482.140106 699.776672,481.835388 692.135071,482.269012 C687.067078,482.556610 684.982300,481.012329 685.846680,475.903656 C686.038635,474.768860 685.882019,473.575043 685.886353,471.925354 z"/>
  <!-- Right O -->
  <path fill="#F3F3F4" d="M897.890137,475.096863 C915.345459,495.759491 917.902283,525.328613 904.371033,547.586731 C889.700134,571.719788 863.405029,583.193359 836.813660,577.064575 C812.239502,571.400757 792.530457,549.108276 789.154846,523.158630 C785.822815,497.544250 799.211243,472.610779 822.865845,460.378052 C845.390503,448.729675 873.719238,452.604675 892.656067,469.945984 C894.373840,471.518951 895.990845,473.201782 897.890137,475.096863 M845.818481,480.755890 C845.325928,480.838806 844.831482,480.911987 844.341064,481.006042 C826.656555,484.399414 815.123047,498.337097 815.154907,516.273621 C815.184143,532.747620 828.289001,548.415649 844.541748,551.408386 C861.605530,554.550415 878.436462,545.104187 884.399353,528.587402 C893.737427,502.722015 872.510254,477.701904 845.818481,480.755890 z"/>
  <path fill="#121C32" d="M846.280029,480.706085 C872.510254,477.701904 893.737427,502.722015 884.399353,528.587402 C878.436462,545.104187 861.605530,554.550415 844.541748,551.408386 C828.289001,548.415649 815.184143,532.747620 815.154907,516.273621 C815.123047,498.337097 826.656555,484.399414 844.341064,481.006042 C844.831482,480.911987 845.325928,480.838806 846.280029,480.706085 z"/>
  <!-- A mark detail layers -->
  <path fill="#1D5488" d="M413.500763,532.908447 C413.338074,533.854919 413.006561,534.997437 412.317627,535.851624 C405.606323,544.173401 406.261017,555.987244 413.831055,563.452820 C421.369080,570.886841 434.313110,571.645630 440.704010,564.105042 C446.208221,557.610657 453.852203,558.451172 460.907654,558.341431 C475.031677,558.121826 489.167145,558.785889 503.299164,558.870422 C510.440582,558.913147 517.599915,558.703796 524.723267,558.208679 C531.049988,557.768799 535.457275,559.851746 538.655640,565.557800 C542.989075,573.289001 549.605530,577.254089 558.889404,576.228394 C567.983704,575.223694 571.134827,569.029846 566.058105,575.734253 C558.232178,580.823608 547.169312,579.251770 541.071289,572.160095 C539.770447,570.647339 538.065796,569.253967 537.377380,567.482910 C534.794312,560.836853 529.570984,560.617249 523.571594,560.675293 C499.922546,560.904114 476.270081,560.850952 452.619415,560.759766 C449.058075,560.746094 446.392517,561.640686 443.815582,564.288147 C435.806274,572.516785 426.153748,573.716492 416.640839,568.103394 C408.266754,563.162292 403.595581,552.156494 406.657410,542.598572 C407.791718,539.057678 410.937592,536.161194 413.500763,532.908447 z"/>
  <path fill="#1D5488" d="M485.052612,488.741669 C485.618347,488.931213 486.184082,489.120728 486.706848,489.904175 C485.720123,492.365570 484.658722,494.183929 483.854431,496.109650 C481.289124,502.251801 479.224701,508.789429 470.849121,509.221252 C469.579956,509.286652 468.235138,509.873627 467.116058,510.539734 C459.731720,514.935364 452.343689,519.331421 445.109680,523.965942 C444.003571,524.674561 443.688019,526.617126 442.604889,527.992554 C439.454437,528.060486 436.705872,528.124878 433.957336,528.189209 C433.494781,528.175171 433.032196,528.161194 432.243164,528.025879 C439.403015,516.416443 446.860718,504.909424 454.391724,493.450562 C456.924713,489.596497 459.644165,485.864960 462.581421,482.330444 C462.049072,484.190979 461.346283,485.885651 460.356476,487.391693 C454.549744,496.227173 448.606842,504.974243 442.897675,513.871704 C442.018036,515.242554 442.108673,517.236145 441.750580,518.941711 C443.361115,518.740112 445.457703,519.117065 446.501221,518.240479 C452.150421,513.494568 457.377197,508.242798 463.060730,503.541534 C469.381287,498.313324 473.365479,489.472473 483.503815,489.880524 C484.003998,489.900635 484.535645,489.139160 485.052612,488.741669 z"/>
  <path fill="#1A65A3" d="M484.720276,488.557800 C484.535645,489.139160 484.003998,489.900635 483.503815,489.880524 C473.365479,489.472473 469.381287,498.313324 463.060730,503.541534 C457.377197,508.242798 452.150421,513.494568 446.501221,518.240479 C445.457703,519.117065 443.361115,518.740112 441.750580,518.941711 C442.108673,517.236145 442.018036,515.242554 442.897675,513.871704 C448.606842,504.974243 454.549744,496.227173 460.356476,487.391693 C461.346283,485.885651 462.049072,484.190979 462.897827,482.215027 C462.911194,481.846558 463.064362,481.440948 463.453918,481.161713 C464.207733,480.215546 464.571960,479.548584 464.936218,478.881653 C465.075012,478.486145 465.213776,478.090607 465.731628,477.384583 C466.412781,477.024384 466.716919,476.997253 467.023102,476.992737 C470.664551,484.061951 476.091339,488.407227 484.720276,488.557800 z"/>
  <path fill="#1A65A3" d="M547.919067,529.709351 C546.675232,528.837402 545.201843,527.769165 544.243774,526.352417 C533.454163,510.397247 522.631653,494.461884 512.085632,478.346008 C509.216003,473.960815 506.059143,469.220367 505.084656,464.241577 C502.319977,450.116150 488.145142,445.486389 476.399323,450.771301 C475.492004,451.179474 474.561157,451.535278 473.260071,451.913330 C481.740143,442.446686 500.820465,445.694000 504.747040,458.478394 C510.149628,476.068542 522.445190,489.150238 531.572998,504.279510 C536.724487,512.818054 542.457642,521.005615 547.919067,529.709351 z"/>
  <path fill="#121C32" d="M443.006836,527.989014 C443.688019,526.617126 444.003571,524.674561 445.109680,523.965942 C452.343689,519.331421 459.731720,514.935364 467.116058,510.539734 C468.235138,509.873627 469.579956,509.286652 470.849121,509.221252 C479.224701,508.789429 481.289124,502.251801 483.854431,496.109650 C484.658722,494.183929 485.720123,492.365570 486.839081,490.181213 C487.537628,490.105377 488.060974,490.346405 488.764526,491.171906 C495.751343,501.772491 502.689667,511.703552 509.254425,521.875732 C510.584473,523.936646 510.503510,526.908264 511.073029,529.460022 C509.981140,529.290833 498.815704,529.200378 488.317291,529.275574 477.818909,529.350708 C466.557434,529.135559 455.295929,528.920349 443.598297,528.504028 C443.162140,528.302795 443.006836,527.989014 z"/>
  <path fill="#1A65A3" d="M511.327759,529.642822 C510.503510,526.908264 510.584473,523.936646 509.254425,521.875732 C502.689667,511.703552 495.751343,501.772491 488.938629,491.403137 C490.272614,491.934448 492.036224,492.525146 492.886169,493.749878 C499.954895,503.935974 506.909302,514.203003 513.767029,524.532715 C515.418579,527.020447 515.294861,529.294800 511.327759,529.642822 z"/>
  <path fill="#1A65A3" d="M478.015747,529.675537 C488.317291,529.275574 498.815704,529.200378 509.770081,529.314514 C509.879395,529.845642 509.529175,530.489441 509.186615,530.485352 C498.861481,530.362976 488.537079,530.176636 478.015747,529.675537 z"/>
  <path fill="#1A65A3" d="M442.604919,527.992554 C443.006836,527.989014 443.162140,528.302795 443.137817,528.475708 C440.263184,528.630859 437.412933,528.613037 434.260010,528.392273 C436.705872,528.124878 439.454437,528.060486 442.604919,527.992554 z"/>
</svg>
