<svg xmlns="http://www.w3.org/2000/svg" viewBox="402 442 172 140">
  <!-- A mark main blue -->
  <path fill="#0F9DED" d="M470.000641,454.975006 C470.000641,454.975006 470.240295,454.759369 470.693237,454.634155 C471.389252,453.958954 471.632385,453.408966 471.875488,452.858978 C472.042419,452.594269 472.246948,452.362793 473.065155,452.039978 C474.561157,451.535278 475.492004,451.179474 476.399323,450.771301 C488.145142,445.486389 502.319977,450.116150 505.084656,464.241577 C506.059143,469.220367 509.216003,473.960815 512.085632,478.346008 C522.631653,494.461884 533.454163,510.397247 544.243774,526.352417 C545.201843,527.769165 546.675232,528.837402 547.909302,530.067505 C547.909302,530.067505 547.944763,530.020874 547.944214,530.378601 C554.084534,540.968872 560.109863,551.273010 566.403992,561.410400 C571.134827,569.029846 567.983704,575.223694 558.889404,576.228394 C549.605530,577.254089 542.989075,573.289001 538.655640,565.557800 C535.457275,559.851746 531.049988,557.768799 524.723267,558.208679 C517.599915,558.703796 510.440582,558.913147 503.299164,558.870422 C489.167145,558.785889 475.031677,558.121826 460.907654,558.341431 C453.852203,558.451172 446.208221,557.610657 440.704010,564.105042 C434.313110,571.645630 421.369080,570.886841 413.831055,563.452820 C406.261017,555.987244 405.606323,544.173401 412.317627,535.851624 C413.006561,534.997437 413.338074,533.854919 413.835449,532.846191 C416.892151,531.489258 419.948822,530.132324 423.735962,528.858765 C424.971252,528.964966 425.476166,528.987732 426.232361,529.211060 C427.697815,529.002808 428.911987,528.593994 430.126160,528.185181 C430.523743,528.121216 430.921295,528.057251 431.944275,528.070190 C433.032196,528.161194 433.494781,528.175171 434.260010,528.392212 C437.412933,528.613037 440.263184,528.630859 443.573975,528.676880 C455.295929,528.920349 466.557434,529.135559 478.015747,529.675537 C488.537079,530.176636 498.861481,530.362976 509.186615,530.485352 C509.529175,530.489441 509.879395,529.845642 510.437134,529.480164 C510.648224,529.456482 511.073029,529.460022 511.327759,529.642822 C515.294861,529.294800 515.418579,527.020447 513.767029,524.532715 C506.909302,514.203003 499.954895,503.935974 492.886169,493.749878 C492.036224,492.525146 490.272614,491.934448 488.758392,490.818665 C488.060974,490.346405 487.537628,490.105377 486.882080,489.587280 C486.184082,489.120728 485.618347,488.931213 484.720276,488.557800 C476.091339,488.407227 470.664551,484.061951 467.051056,476.637939 C466.814148,475.181488 466.549286,474.079865 466.284424,472.978241 C466.469391,468.930176 466.654358,464.882141 467.204010,460.263763 C467.706543,459.111725 467.844360,458.530029 467.982208,457.948303 C467.982208,457.948303 468.158203,457.625061 468.532959,457.354370 C469.272034,456.380798 469.636353,455.677917 470.000641,454.975006 z"/>
  <!-- A mark dark shadow layer -->
  <path fill="#1D5488" d="M413.500763,532.908447 C413.338074,533.854919 413.006561,534.997437 412.317627,535.851624 C405.606323,544.173401 406.261017,555.987244 413.831055,563.452820 C421.369080,570.886841 434.313110,571.645630 440.704010,564.105042 C446.208221,557.610657 453.852203,558.451172 460.907654,558.341431 C475.031677,558.121826 489.167145,558.785889 503.299164,558.870422 C510.440582,558.913147 517.599915,558.703796 524.723267,558.208679 C531.049988,557.768799 535.457275,559.851746 538.655640,565.557800 C542.989075,573.289001 549.605530,577.254089 558.889404,576.228394 C567.983704,575.223694 571.134827,569.029846 566.058105,575.734253 C558.232178,580.823608 547.169312,579.251770 541.071289,572.160095 C539.770447,570.647339 538.065796,569.253967 537.377380,567.482910 C534.794312,560.836853 529.570984,560.617249 523.571594,560.675293 C499.922546,560.904114 476.270081,560.850952 452.619415,560.759766 C449.058075,560.746094 446.392517,561.640686 443.815582,564.288147 C435.806274,572.516785 426.153748,573.716492 416.640839,568.103394 C408.266754,563.162292 403.595581,552.156494 406.657410,542.598572 C407.791718,539.057678 410.937592,536.161194 413.500763,532.908447 z"/>
  <path fill="#1D5488" d="M485.052612,488.741669 C485.618347,488.931213 486.184082,489.120728 486.706848,489.904175 C485.720123,492.365570 484.658722,494.183929 483.854431,496.109650 C481.289124,502.251801 479.224701,508.789429 470.849121,509.221252 C469.579956,509.286652 468.235138,509.873627 467.116058,510.539734 C459.731720,514.935364 452.343689,519.331421 445.109680,523.965942 C444.003571,524.674561 443.688019,526.617126 442.604889,527.992554 C439.454437,528.060486 436.705872,528.124878 433.957336,528.189209 C433.494781,528.175171 433.032196,528.161194 432.243164,528.025879 C439.403015,516.416443 446.860718,504.909424 454.391724,493.450562 C456.924713,489.596497 459.644165,485.864960 462.581421,482.330444 C462.049072,484.190979 461.346283,485.885651 460.356476,487.391693 C454.549744,496.227173 448.606842,504.974243 442.897675,513.871704 C442.018036,515.242554 442.108673,517.236145 441.750580,518.941711 C443.361115,518.740112 445.457703,519.117065 446.501221,518.240479 C452.150421,513.494568 457.377197,508.242798 463.060730,503.541534 C469.381287,498.313324 473.365479,489.472473 483.503815,489.880524 C484.003998,489.900635 484.535645,489.139160 485.052612,488.741669 z"/>
  <!-- A mark mid blue layer -->
  <path fill="#1A65A3" d="M484.720276,488.557800 C484.535645,489.139160 484.003998,489.900635 483.503815,489.880524 C473.365479,489.472473 469.381287,498.313324 463.060730,503.541534 C457.377197,508.242798 452.150421,513.494568 446.501221,518.240479 C445.457703,519.117065 443.361115,518.740112 441.750580,518.941711 C442.108673,517.236145 442.018036,515.242554 442.897675,513.871704 C448.606842,504.974243 454.549744,496.227173 460.356476,487.391693 C461.346283,485.885651 462.049072,484.190979 462.897827,482.215027 C462.911194,481.846558 463.064362,481.440948 463.453918,481.161713 C464.207733,480.215546 464.571960,479.548584 464.936218,478.881653 C465.075012,478.486145 465.731628,477.384583 466.412781,477.024384 C466.716919,476.997253 467.023102,476.992737 C470.664551,484.061951 476.091339,488.407227 484.720276,488.557800 z"/>
  <path fill="#1A65A3" d="M547.919067,529.709351 C546.675232,528.837402 545.201843,527.769165 544.243774,526.352417 C533.454163,510.397247 522.631653,494.461884 512.085632,478.346008 C509.216003,473.960815 506.059143,469.220367 505.084656,464.241577 C502.319977,450.116150 488.145142,445.486389 476.399323,450.771301 C475.492004,451.179474 474.561157,451.535278 473.260071,451.913330 C481.740143,442.446686 500.820465,445.694000 504.747040,458.478394 C510.149628,476.068542 522.445190,489.150238 531.572998,504.279510 C536.724487,512.818054 542.457642,521.005615 547.919067,529.709351 z"/>
  <path fill="#1A65A3" d="M511.327759,529.642822 C510.503510,526.908264 510.584473,523.936646 509.254425,521.875732 C502.689667,511.703552 495.751343,501.772491 488.938629,491.403137 C490.272614,491.934448 492.036224,492.525146 492.886169,493.749878 C499.954895,503.935974 506.909302,514.203003 513.767029,524.532715 C515.418579,527.020447 515.294861,529.294800 511.327759,529.642822 z"/>
  <path fill="#1A65A3" d="M478.015747,529.675537 C488.317291,529.275574 498.815704,529.200378 509.770081,529.314514 C509.879395,529.845642 509.529175,530.489441 509.186615,530.485352 C498.861481,530.362976 488.537079,530.176636 478.015747,529.675537 z"/>
  <path fill="#1A65A3" d="M442.604919,527.992554 C443.006836,527.989014 443.162140,528.302795 443.137817,528.475708 C440.263184,528.630859 437.412933,528.613037 434.260010,528.392273 C436.705872,528.124878 439.454437,528.060486 442.604919,527.992554 z"/>
  <!-- A mark dark inner -->
  <path fill="#121C32" d="M443.006836,527.989014 C443.688019,526.617126 444.003571,524.674561 445.109680,523.965942 C452.343689,519.331421 459.731720,514.935364 467.116058,510.539734 C468.235138,509.873627 469.579956,509.286652 470.849121,509.221252 C479.224701,508.789429 481.289124,502.251801 483.854431,496.109650 C484.658722,494.183929 485.720123,492.365570 486.839081,490.181213 C487.537628,490.105377 488.060974,490.346405 488.764526,491.171906 C495.751343,501.772491 502.689667,511.703552 509.254425,521.875732 C510.584473,523.936646 510.503510,526.908264 511.073029,529.460022 C509.981140,529.290833 498.815704,529.200378 488.317291,529.275574 477.818909,529.350708 C466.557434,529.135559 455.295929,528.920349 443.598297,528.504028 C443.162140,528.302795 443.006836,527.989014 z"/>
</svg>
